<?xml version="1.0" encoding="utf-8"?>
<!-- Generator: Adobe Illustrator 23.0.1, SVG Export Plug-In . SVG Version: 6.00 Build 0)  -->
<svg version="1.1" id="Layer_1" xmlns="http://www.w3.org/2000/svg" xmlns:xlink="http://www.w3.org/1999/xlink" x="0px" y="0px"
	 width="40.4px" height="50px" viewBox="0 0 40.4 50" style="enable-background:new 0 0 40.4 50;" xml:space="preserve">
<path d="M20.2,5.5c-5.2,0-10.1,2-13.8,5.7C2.8,14.9,0.8,19.8,0.8,25s2,10.1,5.7,13.8c3.6,3.6,8.6,5.7,13.8,5.7s10.1-2,13.8-5.7
	c3.6-3.6,5.7-8.6,5.7-13.8c0-3.4-0.9-6.8-2.6-9.7s-4.2-5.4-7.1-7.1S23.6,5.5,20.2,5.5L20.2,5.5z M10.5,38.5c0-3.5,1.9-6.7,4.9-8.4
	c3-1.7,6.7-1.7,9.7,0c3,1.7,4.9,4.9,4.9,8.4c-2.8,2-6.2,3.2-9.7,3.2S13.3,40.6,10.5,38.5z M32.6,36.1h-0.2c-0.8-3.7-3.3-6.9-6.8-8.5
	c-3.4-1.7-7.4-1.7-10.9,0c-3.4,1.7-5.9,4.8-6.8,8.5H7.8c-2.9-3.2-4.4-7.4-4.3-11.7c0.2-4.3,2-8.4,5.1-11.4c3.1-3,7.3-4.7,11.6-4.7
	S28.7,10,31.8,13c3.1,3,4.9,7.1,5.1,11.4C37,28.7,35.5,32.9,32.6,36.1L32.6,36.1z M20.2,11.1c-1.8,0-3.6,0.7-4.9,2s-2,3.1-2,4.9
	s0.7,3.6,2,4.9s3.1,2,4.9,2s3.6-0.7,4.9-2c1.3-1.3,2-3.1,2-4.9s-0.7-3.6-2-4.9S22.1,11.1,20.2,11.1z M20.2,22.2
	c-1.1,0-2.2-0.4-2.9-1.2c-0.8-0.8-1.2-1.8-1.2-2.9s0.4-2.2,1.2-2.9c0.8-0.8,1.8-1.2,2.9-1.2s2.2,0.4,2.9,1.2
	c0.8,0.8,1.2,1.8,1.2,2.9s-0.4,2.2-1.2,2.9C22.4,21.8,21.3,22.2,20.2,22.2z"/>
</svg>
