<?xml version="1.0" encoding="utf-8"?>
<!-- Generator: Adobe Illustrator 23.0.1, SVG Export Plug-In . SVG Version: 6.00 Build 0)  -->
<svg version="1.1" id="Layer_1" xmlns="http://www.w3.org/2000/svg" xmlns:xlink="http://www.w3.org/1999/xlink" x="0px" y="0px"
	 width="40.4px" height="50px" viewBox="0 0 40.4 50" style="enable-background:new 0 0 40.4 50;" xml:space="preserve">
<g>
	<path d="M29.8,34.2c-0.6,1.1-1.3,2.1-2,3.1c4.4,1,7,2.7,7,4c0,1.9-5.8,4.8-14.5,4.8S5.7,43.3,5.7,41.3c0-1.3,2.6-3,7-4
		c-0.7-1-1.4-2-2-3.1c-5,1.3-8.6,3.7-8.6,7.1c0,5.5,9.1,8.4,18.1,8.4s18.1-2.9,18.1-8.4C38.4,37.8,34.8,35.5,29.8,34.2L29.8,34.2z"
		/>
	<path d="M21.8,39.9c3.7-5.5,12.6-19.2,12.6-25.4c0-7.9-6.4-14.2-14.2-14.2S6,6.6,6,14.5c0,6.2,8.9,19.9,12.6,25.4
		C19.4,41,21,41,21.8,39.9L21.8,39.9z M13.6,14.5c0-3.7,3-6.6,6.6-6.6s6.6,3,6.6,6.6s-3,6.6-6.6,6.6S13.6,18.1,13.6,14.5z"/>
</g>
</svg>
