<?xml version="1.0" encoding="utf-8"?>
<!-- Generator: Adobe Illustrator 23.0.1, SVG Export Plug-In . SVG Version: 6.00 Build 0)  -->
<svg version="1.1" id="Layer_1" xmlns="http://www.w3.org/2000/svg" xmlns:xlink="http://www.w3.org/1999/xlink" x="0px" y="0px"
	 width="18px" height="18px" viewBox="0 0 18 18" style="enable-background:new 0 0 18 18;" xml:space="preserve">
<style type="text/css">
	.st0{fill:#FFFFFF;}
</style>
<g>
	<path class="st0" d="M9,1.5c4.2,0,7.5,3.4,7.5,7.5s-3.4,7.5-7.5,7.5S1.5,13.2,1.5,9S4.8,1.5,9,1.5 M9,0C4,0,0,4,0,9s4,9,9,9
		s9-4,9-9S14,0,9,0L9,0z"/>
	<path class="st0" d="M10,5.2l-0.2,5.1c0,0.4-0.4,0.7-0.7,0.7c-0.4,0-0.7-0.3-0.7-0.7L8.2,5.2c0-0.5,0.4-1,0.9-1
		C9.6,4.2,10,4.6,10,5.2C10,5.1,10,5.1,10,5.2L10,5.2z"/>
	<path class="st0" d="M10.1,12.9c0,0.5-0.4,1-1,1c-0.5,0-1-0.4-1-1c0-0.5,0.4-1,1-1C9.6,11.9,10.1,12.4,10.1,12.9"/>
</g>
</svg>
