<?xml version="1.0" encoding="utf-8"?>
<!-- Generator: Adobe Illustrator 23.0.1, SVG Export Plug-In . SVG Version: 6.00 Build 0)  -->
<svg version="1.1" id="Layer_1" xmlns="http://www.w3.org/2000/svg" xmlns:xlink="http://www.w3.org/1999/xlink" x="0px" y="0px"
	 width="40.4px" height="50px" viewBox="0 0 40.4 50" style="enable-background:new 0 0 40.4 50;" xml:space="preserve">
<g>
	<path d="M38.6,7.3l-5.4-5.4c-1.2-1.2-2.8-1.8-4.5-1.8L6.3,0C4.6,0,3.1,0.6,1.8,1.8C0.6,3.1,0,4.6,0,6.3v37.4C0,47.2,2.8,50,6.3,50
		h27.8c3.5,0,6.3-2.8,6.3-6.3l0-31.9C40.4,10.1,39.7,8.5,38.6,7.3L38.6,7.3z M36.3,9.6c0.2,0.2,0.4,0.5,0.6,0.8h-6.6
		c-0.1,0-0.2-0.1-0.2-0.2l0-6.5c0.3,0.2,0.6,0.3,0.8,0.6L36.3,9.6z M34.1,46.7H6.3c-1.6,0-3-1.4-3-3V6.3c0-0.8,0.3-1.6,0.9-2.1
		c0.6-0.6,1.3-0.9,2.1-0.9l20.4,0.1v6.9c0,1.9,1.6,3.5,3.5,3.5h6.9v29.9C37.1,45.3,35.8,46.7,34.1,46.7L34.1,46.7z"/>
	<path d="M31.3,28.1H19.8c-0.9,0-1.6,0.7-1.6,1.6c0,0.9,0.7,1.6,1.6,1.6h11.5c0.9,0,1.6-0.7,1.6-1.6C32.9,28.8,32.2,28.1,31.3,28.1
		L31.3,28.1z"/>
	<path d="M31.3,18.7H19.8c-0.9,0-1.6,0.7-1.6,1.6c0,0.9,0.7,1.6,1.6,1.6h11.5c0.9,0,1.6-0.7,1.6-1.6C32.9,19.4,32.2,18.7,31.3,18.7
		L31.3,18.7z"/>
	<path d="M31.3,37.4H19.8c-0.9,0-1.6,0.7-1.6,1.6c0,0.9,0.7,1.6,1.6,1.6h11.5c0.9,0,1.6-0.7,1.6-1.6C32.9,38.1,32.2,37.4,31.3,37.4
		L31.3,37.4z"/>
	<path d="M13.6,17L11,19.6l-0.7-0.7c-0.6-0.6-1.7-0.6-2.3,0c-0.6,0.6-0.6,1.7,0,2.3l1.9,1.9c0.3,0.3,0.7,0.5,1.2,0.5
		c0.4,0,0.8-0.2,1.2-0.5l3.8-3.8c0.6-0.6,0.6-1.7,0-2.3C15.3,16.3,14.2,16.3,13.6,17L13.6,17z"/>
	<path d="M13.6,26.3L11,28.9l-0.7-0.7c-0.6-0.6-1.7-0.6-2.3,0s-0.6,1.7,0,2.3l1.9,1.9c0.3,0.3,0.7,0.5,1.2,0.5
		c0.4,0,0.8-0.2,1.2-0.5l3.8-3.8c0.6-0.6,0.6-1.7,0-2.3C15.3,25.7,14.2,25.7,13.6,26.3L13.6,26.3z"/>
	<path d="M13.6,35.6L11,38.2l-0.7-0.7c-0.6-0.6-1.7-0.6-2.3,0c-0.6,0.6-0.6,1.7,0,2.3l1.9,1.9c0.3,0.3,0.7,0.5,1.2,0.5
		c0.4,0,0.8-0.2,1.2-0.5l3.8-3.8c0.6-0.6,0.6-1.7,0-2.3C15.3,35,14.2,35,13.6,35.6L13.6,35.6z"/>
</g>
</svg>
