<?xml version="1.0" encoding="utf-8"?>
<!-- Generator: Adobe Illustrator 23.0.1, SVG Export Plug-In . SVG Version: 6.00 Build 0)  -->
<svg version="1.1" id="Layer_1" xmlns="http://www.w3.org/2000/svg" xmlns:xlink="http://www.w3.org/1999/xlink" x="0px" y="0px"
	 width="40.4px" height="50px" viewBox="0 0 40.4 50" style="enable-background:new 0 0 40.4 50;" xml:space="preserve">
<path d="M11.1,7.5c-2.7,0-5.3,1.1-7.3,3.2c-4,4.2-4,11,0,15.2L19.1,42c0.3,0.3,0.7,0.5,1.1,0.5c0.4,0,0.8-0.2,1.1-0.5
	c5.1-5.4,10.3-10.8,15.4-16.2c4-4.2,4-11,0-15.2c-4-4.2-10.7-4.2-14.7,0l-1.8,1.9l-1.8-1.9C16.4,8.6,13.7,7.5,11.1,7.5L11.1,7.5z
	 M11.1,10.4c1.9,0,3.7,0.8,5.2,2.3l2.9,3l0,0c0.3,0.3,0.7,0.5,1.1,0.5c0.4,0,0.8-0.2,1.1-0.5l2.8-3c2.9-3.1,7.5-3.1,10.4,0
	c2.9,3.1,2.9,8.1,0,11.2c-4.8,5-9.6,10-14.3,15.1L5.9,23.8c-2.9-3.1-2.9-8.1,0-11.2C7.3,11.1,9.2,10.4,11.1,10.4L11.1,10.4z"/>
</svg>
