<svg
	version="1.1"
	id="Layer_1"
	xmlns="http://www.w3.org/2000/svg"
	xmlns:xlink="http://www.w3.org/1999/xlink"
	x="0px"
	y="0px"
	width="14px"
	height="14px"
	viewBox="0 0 14 14"
	style="enable-background: new 0 0 14 14"
	xml:space="preserve"
>
	<path
		d="M3.5,0C2.6,0,1.7,0.4,1,1.2c-1.4,1.6-1.4,4.2,0,5.9l5.8,6.9v0C6.9,14,6.9,14,7,14c0.1,0,0.1,0,0.1-0.1
	C9.1,11.7,11,9.4,13,7.1c1.4-1.6,1.4-4.2,0-5.9c-1.4-1.6-3.6-1.6-5,0L7,2.3L6.1,1.2C5.4,0.4,4.5,0,3.5,0L3.5,0z M3.5,0.4
	c0.8,0,1.6,0.4,2.2,1.1l1.1,1.3c0,0,0.1,0.1,0.1,0.1s0.1,0,0.1-0.1l1.1-1.3c1.2-1.5,3.2-1.5,4.5,0c1.2,1.5,1.2,3.8,0,5.3
	C10.8,9,8.9,11.3,7,13.5L1.3,6.8C0.1,5.3,0.1,3,1.3,1.5C1.9,0.8,2.7,0.4,3.5,0.4L3.5,0.4z"
	/>
</svg>
